# xmcd
#
# Track frame offsets: 
#        150
#        15677
#        39580
#        95059
#        135487
#        153144
#        171596
#        192366
#        221650
#        248218
#        261583
#        294701
#        324437
#
# Disc length: 4605 seconds
#
# Revision: 0
# Processed by: cddbd v1.5.2PL0 Copyright (c) Steve Scherf et al.
# Submitted via: ExactAudioCopy v1.0b3
#
DISCID=c411fb0d
DTITLE=Various Artist - Space Rock [CD 2)
DYEAR=2016
DGENRE=Rock
TTITLE0=Tangerine Dream - Ultima Thule Part 1
TTITLE1=Brainticket - Watchin' You
TTITLE2=Faust - Parasiten
TTITLE3=Pyramidal - Black Land
TTITLE4=Lee, Shawn - Low Riders In Space
TTITLE5=Hydravion - Passadena Airport
TTITLE6=Pressurehed - Altitude
TTITLE7=Het Droste Effect - You Know That I Knew
TTITLE8=German Oak - Shadows Of War
TTITLE9=Allen Weird Quartet, David - The Cold Stuffings Of November
TTITLE10=Omega - Don't Keep Me Waitin'
TTITLE11=Kalutaliksuak - What Are Your Feet Eating?
TTITLE12=Oranssi Pazulu - Reika Maisemassa
EXTD=
EXTT0=
EXTT1=
EXTT2=
EXTT3=
EXTT4=
EXTT5=
EXTT6=
EXTT7=
EXTT8=
EXTT9=
EXTT10=
EXTT11=
EXTT12=
PLAYORDER=
